<mxfile host="app.diagrams.net" modified="2022-02-13T10:20:45.735Z" agent="5.0 (Macintosh; Intel Mac OS X 10_15_7) AppleWebKit/537.36 (KHTML, like Gecko) Chrome/97.0.4692.71 Safari/537.36" etag="vxHV-0let5sD3umyPH0M" version="16.5.6" type="github">
  <diagram id="B5nBlv-jxWCVv9ZVLPef" name="Page-1">
    <mxGraphModel dx="847" dy="510" grid="1" gridSize="10" guides="1" tooltips="1" connect="1" arrows="1" fold="1" page="1" pageScale="1" pageWidth="827" pageHeight="1169" math="0" shadow="0">
      <root>
        <mxCell id="0" />
        <mxCell id="1" parent="0" />
        <mxCell id="jQZNAHkUNPAF1KKZHofR-3" value="DBAssist" style="rounded=1;whiteSpace=wrap;html=1;fillColor=#dae8fc;strokeColor=#6c8ebf;" parent="1" vertex="1">
          <mxGeometry x="250" y="40" width="140" height="40" as="geometry" />
        </mxCell>
        <mxCell id="jQZNAHkUNPAF1KKZHofR-9" value="DirectBuy" style="rounded=1;whiteSpace=wrap;html=1;fillColor=#fff2cc;strokeColor=#d6b656;" parent="1" vertex="1">
          <mxGeometry x="259" y="240" width="120" height="40" as="geometry" />
        </mxCell>
        <mxCell id="jQZNAHkUNPAF1KKZHofR-12" value="ItemDB" style="shape=cylinder3;whiteSpace=wrap;html=1;boundedLbl=1;backgroundOutline=1;size=15;fillColor=#dae8fc;strokeColor=#6c8ebf;" parent="1" vertex="1">
          <mxGeometry x="517" y="20" width="60" height="80" as="geometry" />
        </mxCell>
        <mxCell id="jQZNAHkUNPAF1KKZHofR-13" value="MidasSDK" style="rounded=1;whiteSpace=wrap;html=1;" parent="1" vertex="1">
          <mxGeometry x="120" y="140" width="81" height="40" as="geometry" />
        </mxCell>
        <mxCell id="jQZNAHkUNPAF1KKZHofR-14" value="DirectCallBack" style="rounded=1;whiteSpace=wrap;html=1;fillColor=#fff2cc;strokeColor=#d6b656;" parent="1" vertex="1">
          <mxGeometry x="480" y="140" width="120" height="40" as="geometry" />
        </mxCell>
        <mxCell id="jQZNAHkUNPAF1KKZHofR-16" value="Bussiness" style="rounded=1;whiteSpace=wrap;html=1;fillColor=#fff2cc;strokeColor=#d6b656;dashed=1;" parent="1" vertex="1">
          <mxGeometry x="480" y="240" width="120" height="40" as="geometry" />
        </mxCell>
        <mxCell id="jQZNAHkUNPAF1KKZHofR-17" value="&lt;br&gt;&lt;br&gt;Player" style="shape=actor;whiteSpace=wrap;html=1;" parent="1" vertex="1">
          <mxGeometry x="39" y="115" width="40" height="60" as="geometry" />
        </mxCell>
        <mxCell id="zq9rtZBUQA8-_jyhmFga-1" value="" style="endArrow=classic;html=1;rounded=0;exitX=0.5;exitY=0;exitDx=0;exitDy=0;entryX=0;entryY=0.5;entryDx=0;entryDy=0;edgeStyle=orthogonalEdgeStyle;fillColor=#dae8fc;gradientColor=#7ea6e0;strokeColor=#6c8ebf;strokeWidth=2;" edge="1" parent="1" source="jQZNAHkUNPAF1KKZHofR-17" target="jQZNAHkUNPAF1KKZHofR-3">
          <mxGeometry width="50" height="50" relative="1" as="geometry">
            <mxPoint x="80" y="190" as="sourcePoint" />
            <mxPoint x="190" y="50" as="targetPoint" />
          </mxGeometry>
        </mxCell>
        <mxCell id="zq9rtZBUQA8-_jyhmFga-16" value="game buy" style="edgeLabel;html=1;align=center;verticalAlign=middle;resizable=0;points=[];" vertex="1" connectable="0" parent="zq9rtZBUQA8-_jyhmFga-1">
          <mxGeometry x="0.0216" y="1" relative="1" as="geometry">
            <mxPoint as="offset" />
          </mxGeometry>
        </mxCell>
        <mxCell id="zq9rtZBUQA8-_jyhmFga-2" value="MidasServer" style="rounded=0;whiteSpace=wrap;html=1;" vertex="1" parent="1">
          <mxGeometry x="255" y="140" width="128" height="40" as="geometry" />
        </mxCell>
        <mxCell id="zq9rtZBUQA8-_jyhmFga-5" value="" style="endArrow=classic;html=1;rounded=0;exitX=1;exitY=0.5;exitDx=0;exitDy=0;entryX=0;entryY=0.5;entryDx=0;entryDy=0;entryPerimeter=0;fillColor=#dae8fc;gradientColor=#7ea6e0;strokeColor=#6c8ebf;strokeWidth=2;" edge="1" parent="1" source="jQZNAHkUNPAF1KKZHofR-3" target="jQZNAHkUNPAF1KKZHofR-12">
          <mxGeometry width="50" height="50" relative="1" as="geometry">
            <mxPoint x="447" y="90" as="sourcePoint" />
            <mxPoint x="497" y="40" as="targetPoint" />
          </mxGeometry>
        </mxCell>
        <mxCell id="zq9rtZBUQA8-_jyhmFga-6" value="" style="endArrow=classic;html=1;rounded=0;exitX=1;exitY=0.5;exitDx=0;exitDy=0;fillColor=#fff2cc;gradientColor=#ffd966;strokeColor=#d6b656;strokeWidth=2;" edge="1" parent="1" source="jQZNAHkUNPAF1KKZHofR-13" target="zq9rtZBUQA8-_jyhmFga-2">
          <mxGeometry width="50" height="50" relative="1" as="geometry">
            <mxPoint x="230" y="253" as="sourcePoint" />
            <mxPoint x="280" y="203" as="targetPoint" />
          </mxGeometry>
        </mxCell>
        <mxCell id="zq9rtZBUQA8-_jyhmFga-9" value="" style="endArrow=classic;startArrow=classic;html=1;rounded=0;entryX=0.5;entryY=1;entryDx=0;entryDy=0;exitX=0;exitY=0.5;exitDx=0;exitDy=0;edgeStyle=orthogonalEdgeStyle;fillColor=#fff2cc;gradientColor=#ffd966;strokeColor=#d6b656;strokeWidth=2;" edge="1" parent="1" source="jQZNAHkUNPAF1KKZHofR-9" target="jQZNAHkUNPAF1KKZHofR-17">
          <mxGeometry width="50" height="50" relative="1" as="geometry">
            <mxPoint x="60" y="370" as="sourcePoint" />
            <mxPoint x="110" y="320" as="targetPoint" />
          </mxGeometry>
        </mxCell>
        <mxCell id="zq9rtZBUQA8-_jyhmFga-17" value="direct buy" style="edgeLabel;html=1;align=center;verticalAlign=middle;resizable=0;points=[];" vertex="1" connectable="0" parent="zq9rtZBUQA8-_jyhmFga-9">
          <mxGeometry x="0.0986" relative="1" as="geometry">
            <mxPoint as="offset" />
          </mxGeometry>
        </mxCell>
        <mxCell id="zq9rtZBUQA8-_jyhmFga-10" value="" style="endArrow=classic;html=1;rounded=0;entryX=0;entryY=0.5;entryDx=0;entryDy=0;exitX=1;exitY=0.75;exitDx=0;exitDy=0;fillColor=#fff2cc;gradientColor=#ffd966;strokeColor=#d6b656;strokeWidth=2;" edge="1" parent="1" source="jQZNAHkUNPAF1KKZHofR-17" target="jQZNAHkUNPAF1KKZHofR-13">
          <mxGeometry width="50" height="50" relative="1" as="geometry">
            <mxPoint x="80" y="210" as="sourcePoint" />
            <mxPoint x="130" y="160" as="targetPoint" />
          </mxGeometry>
        </mxCell>
        <mxCell id="zq9rtZBUQA8-_jyhmFga-11" value="" style="endArrow=classic;startArrow=classic;html=1;rounded=0;exitX=1;exitY=0.5;exitDx=0;exitDy=0;fillColor=#fff2cc;gradientColor=#ffd966;strokeColor=#d6b656;strokeWidth=2;" edge="1" parent="1" source="zq9rtZBUQA8-_jyhmFga-2" target="jQZNAHkUNPAF1KKZHofR-14">
          <mxGeometry width="50" height="50" relative="1" as="geometry">
            <mxPoint x="340" y="220" as="sourcePoint" />
            <mxPoint x="390" y="170" as="targetPoint" />
          </mxGeometry>
        </mxCell>
        <mxCell id="zq9rtZBUQA8-_jyhmFga-12" value="" style="endArrow=classic;html=1;rounded=0;exitX=0.5;exitY=1;exitDx=0;exitDy=0;strokeWidth=2;fillColor=#fff2cc;gradientColor=#ffd966;strokeColor=#d6b656;" edge="1" parent="1" source="jQZNAHkUNPAF1KKZHofR-14" target="jQZNAHkUNPAF1KKZHofR-16">
          <mxGeometry width="50" height="50" relative="1" as="geometry">
            <mxPoint x="340" y="220" as="sourcePoint" />
            <mxPoint x="390" y="170" as="targetPoint" />
          </mxGeometry>
        </mxCell>
        <mxCell id="zq9rtZBUQA8-_jyhmFga-13" value="" style="endArrow=classic;startArrow=classic;html=1;rounded=0;entryX=0.5;entryY=1;entryDx=0;entryDy=0;" edge="1" parent="1" source="zq9rtZBUQA8-_jyhmFga-2" target="jQZNAHkUNPAF1KKZHofR-3">
          <mxGeometry width="50" height="50" relative="1" as="geometry">
            <mxPoint x="250" y="150" as="sourcePoint" />
            <mxPoint x="300" y="100" as="targetPoint" />
          </mxGeometry>
        </mxCell>
        <mxCell id="zq9rtZBUQA8-_jyhmFga-15" value="" style="endArrow=classic;html=1;rounded=0;exitX=0.5;exitY=0;exitDx=0;exitDy=0;" edge="1" parent="1" source="jQZNAHkUNPAF1KKZHofR-9" target="zq9rtZBUQA8-_jyhmFga-2">
          <mxGeometry width="50" height="50" relative="1" as="geometry">
            <mxPoint x="350" y="150" as="sourcePoint" />
            <mxPoint x="400" y="100" as="targetPoint" />
          </mxGeometry>
        </mxCell>
      </root>
    </mxGraphModel>
  </diagram>
</mxfile>
